<svg data-name="Layer 1" xmlns="http://www.w3.org/2000/svg" viewBox="0 0 167.82 167.31"><defs><clipPath id="a"><path fill="none" d="M0 0h410.65v167.31H0z"/></clipPath></defs><path d="M129.69 129.88h-13.77v-14.31h13.77v14.31zm-14.13-14.73H105v-10.93h10.52v10.93zm35.71 37H130v-22.06h21.26v22.08z" fill="#00b0f0"/><path d="M129.48 38h-13.77v14.35h13.77V38zm-14.13 14.77h-10.51V63.7h10.52V52.78zm35.72-37H129.8v22.06h21.27V15.74z" fill="#953993"/><path d="M39.86 38.87h13.77v14.31H39.86V38.87zM54 53.61h10.5v10.92H54V53.61zm-35.71-37h21.25v22.05H18.27V16.58z" fill="#f58735"/><path d="M77.14 128.45h14.3v13.77h-14.3v-13.77zm2.45-12.88H89v9.06h-9.41v-9.06zm-6.34 51.74h22.09V146H73.26v21.26z" fill="#90c84b"/><path d="M142.73 90.67H129v-14.3h13.77v14.3zm-17.6-2.45h-9.05v-9.41h9.05v9.41zm42.69 6.34h-21.27V72.48h21.26v22.08z" fill="#0082c7"/><path d="M91.17 38.86h-14.3V25.09h14.3v13.77zm-2.44 12.88h-9.41v-9.05h9.41v9.06zM73 21.26h22.06V0H73v21.26z" fill="#ee3338"/><path d="M25.59 76.64h13.77v14.31H25.59V76.64zm17.6 2.45h9.06v9.41h-9.06v-9.41zM.5 94.83h21.26V72.75H.5v22.08z" fill="#fdbb2f"/><path d="M62.61 37.73h5.31v5.12h-5.31v-5.12zM52.42 19.28h9.74v9.38h-9.74v-9.38zm53.44 18.45h-5.31v5.12h5.31v-5.12zm10.19-18.45h-9.74v9.38h9.74v-9.38zm9.12 43.14h5.12v5.31h-5.12v-5.32zm14.19-10.19h9.38V62h-9.38v-9.78zm-14.19 53.44h5.12v-5.31h-5.12v5.31zm14.19 10.19h9.38v-9.74h-9.38v9.74zm-33.51 13.89h-5.31v-5.12h5.31v5.12zm10.19 18.46h-9.74v-9.38h9.74v9.38zm-53.43-18.47h5.31v-5.12h-5.31v5.12zm-10.19 18.45h9.74v-9.38h-9.74v9.38zm-7.21-85.78h-5.12v5.31h5.12v-5.31zM31 52.22h-9.37V62H31v-9.78zm14.2 53.44h-5.12v-5.31h5.12v5.31zM31 115.85h-9.37v-9.74H31v9.74z" fill="#96989b"/><g clip-path="url(#a)"><path d="M84.3 86a2.12 2.12 0 1 1 2.12-2.12A2.12 2.12 0 0 1 84.3 86m5.7-3.86l12.58-16.79-16.76 12.58a6 6 0 0 0-2.8-.06L65.89 65.35 78.4 82.48a6 6 0 0 0 .23 3.28L0 159.87c-.25 3 3.42 6.91 6.55 7l76-77.37a6 6 0 0 0 3 .08l17 12.42L90.1 84.85a6 6 0 0 0-.1-2.71m-2-9L84.3 55.4l-3.73 17.81a11.38 11.38 0 0 1 7.43-.05M55.8 83.87l17.8 3.73a11.4 11.4 0 0 1-.05-7.46L55.8 83.87zm24.77 10.79l3.72 17.76L88 94.61a11.38 11.38 0 0 1-7.46.05m32.24-10.76L95 80.17a11.38 11.38 0 0 1 0 7.46l17.75-3.72z" fill="#96989b"/></g></svg>